<?xml version="1.0" encoding="UTF-8"?><svg id="six" xmlns="http://www.w3.org/2000/svg" viewBox="0 0 128 128"><defs><style>.cls-1{fill:#f8f8f8;}</style></defs><path class="cls-1" d="M62.2,113.5c.85-.37,1.22-.56,1.61-.69,2.58-.84,5.46-1.19,7.64-2.62,1.87-1.23,2.87-3.74,4.39-5.58,.74-.89,1.67-1.86,2.71-2.22,4.83-1.67,8.36-6.48,7.89-11.57-.29-3.15-.98-6.29-1.76-9.37-.36-1.45-1.24-2.56-3.31-2.2-.85,.15-2.44-.93-2.85-1.83-2.19-4.82-6.69-6.71-10.97-8.58-4.26-1.86-8.85-3.01-13.35-4.27-1.18-.33-2.64-.18-3.84,.19-6.73,2.08-11.35,6.41-14.28,12.91-2.44,5.4-1.93,10.04,1.8,14.52,.47,.56,.56,1.45,.59,2.3-3.18-1.68-4.66-4.56-5.96-7.64-1.27-3.02-.41-5.88,.31-8.78,1.62-6.54,5.92-10.76,11.75-13.77,3.85-1.99,7.78-3.67,12.15-2.37,6.28,1.88,12.65,3.62,18.26,7.24,1.82,1.17,3.66,2.31,5.69,3.58-1.45-4.35-.48-8.8-2.31-13.12-3.38-8.01-.15-14.87,6.89-19.44,6.26-4.06,13.15-4.78,20.28-2.9,3.07,.81,6.16,1.71,9.04,3.02,1.56,.71,2.85,2.24,3.98,3.63,1.17,1.45,2.04,3.15,2.97,4.79,1.19,2.09,2.16,4.33,3.49,6.32,1.77,2.65,.77,5.46,.74,8.19-.05,3.86-1.42,7.3-4.22,10.01-1.19,1.15-2.56,2.21-4.03,2.93-2.48,1.21-4.85,2.35-6.46,4.82-2.34,3.59-7.66,3.78-9.77-.45-.84-1.68-1.86-2.64-3.99-1.9-1.23,.42-2.67,.06-3.22-1.47-.43-1.2-1.28-1.21-2.2-.85-2.32,.91-3.9,.24-5.33-1.82-.5-.72-2.07-.7-3.15-1.02-.11,.21-.22,.42-.32,.63,.36,.38,.66,.84,1.08,1.13,3.71,2.48,4.93,6.29,5.32,10.41,.29,3.08,.97,6.17-.29,9.27-1.71,4.22-4.99,6.81-8.9,8.59-2.2,1-4.07,1.99-5.37,4.19-2.37,4.02-8.4,6.82-12.7,5.8Zm34.67-37.04c1.51-.78,2.57-1.29,3.59-1.86,1.57-.87,2.42-.41,2.65,1.37,.12,.95,.36,1.92,.75,2.78,1.29,2.86,3.28,3.06,5.01,.41,1.2-1.84,2.78-3,4.7-3.93,1.92-.93,3.8-2,5.57-3.2,1.95-1.32,3.67-5.72,3.17-7.62-5.14,4.66-12.63,2.84-12.03-4.54-1.05,.66-2.02,1.29-2.99,1.89-3.35,2.07-6.03,1.46-9.2-2.11-1.54-1.73-1.24-3.78,.98-6.66,.08-.1,.16-.21,.24-.31,2.08-2.52,5.83-3.66,8.83-2.25,1.37,.65,2.54,2.04,3.38,3.37,.52,.82,.25,2.15,.34,3.22q5.12-2,10.04-.83c-.11-.49-.11-.95-.31-1.3-1.63-2.82-3.17-5.7-4.99-8.39-.99-1.46-2.36-2.71-3.73-3.83-2.68-2.17-6-2.7-9.28-3.33-5.75-1.1-11.25-.63-16.42,2.28-6.28,3.54-8.54,9.8-6.59,15.92,1.14,3.59,2.98,6.92,2.33,10.92-.13,.8,.61,2.23,1.32,2.56,.68,.31,1.85-.42,2.8-.72,.17-.05,.27-.33,.44-.37,.87-.22,1.74-.39,2.62-.58-.06,.81-.12,1.62-.18,2.43-.04,.61-.34,1.49-.06,1.75,.42,.4,1.33,.63,1.89,.46,.97-.29,1.8-1.01,2.73-1.43,.54-.25,1.37-.56,1.73-.32,.48,.32,.77,1.11,.9,1.75,.12,.58-.09,1.23-.21,2.47Z"/><path class="cls-1" d="M47.31,15.1c-.27,3.11,1.66,3.67,3.55,4.4,2.24,.87,4.4,1.93,6.61,2.89,7.86,3.39,9.85,13.6,5.69,20.54-.66,1.11-1.82,2.38-2.96,2.65-3.97,.92-5.2,4.23-6.88,7.17-.51,.9-.74,1.95-1.16,2.9-1.22,2.76-3.93,3.49-6.24,1.55-1.3-1.1-1.94-1.06-2.8,.48-1.52,2.72-2.73,3.12-5.99,2.67-.53-.07-1.3,.2-1.67,.59-3.39,3.63-3.37,3.65-7.4,.6-.57,.93-1.2,1.8-1.66,2.76-1.19,2.51-3.7,3.46-5.21,1.33-2.77-3.92-7.29-3.99-10.88-6-2.69-1.51-5.51-2.82-6.72-5.92-.44-1.13-.66-2.38-.79-3.59-.65-5.84-1.05-11.69,1.38-17.26,3.15-7.21,7.73-12.92,15.43-15.91,6.56-2.55,13.11-3.1,19.93-1.85,.58,.11,1.16,.22,1.74,.21,.57-.01,1.14-.18,1.84-.31,.93,2.13,2.37,1.26,4.21,.12Zm-15.35,45.62c.65-1.21,1.12-2.2,1.67-3.13,.89-1.49,2.17-1.77,3.69-1q2.52,1.27,3.88-1.14c.26-.45,.52-.9,.8-1.34,1.43-2.26,3.09-2.35,4.74-.27,1.64,2.07,2.21,1.94,3.3-.39,1.29-2.76,2.69-5.47,4.22-8.1,.38-.65,1.43-.93,2.19-1.33,1.18-.62,2.73-.9,3.51-1.83,3.51-4.2,2.65-12.21-1.87-15.41-3.08-2.17-6.67-3.62-10.02-5.4-1.49-.79-2.92-1.74-4.47-2.39-7.43-3.13-14.81-2.7-22.22,.26-4.39,1.76-7.8,4.72-10.66,8.29-3.81,4.76-5.31,10.36-4.99,16.45,.11,2.08-.17,4.25,.34,6.21,.5,1.92,1.33,4.27,2.8,5.32,2.42,1.72,5.48,2.55,8.29,3.73,1.07,.45,2.26,.66,3.24,1.25,1,.6,1.8,1.54,2.69,2.33,.72-.98,1.43-1.97,2.16-2.93,1.9-2.48,3.98-2.47,5.89,0,.15,.2,.35,.36,.81,.82Z"/><path class="cls-1" d="M63.44,96.3c-3.25-1.36-4.9-4.54-4.27-8.06,1-5.55,4.71-8.68,9.62-10.59,2.61-1.02,5.82,.66,7.19,3.15,1.5,2.74,1.68,5.65,1.15,8.53-.84,4.57-9.35,8.78-13.69,6.97Z"/><path class="cls-1" d="M55.35,83.98c-2.44-1.02-2.41,.43-2.16,2.08,.14,.89,.35,1.78,.41,2.67,.03,.49-.19,.99-.3,1.48-.54-.22-1.37-.29-1.55-.68-.41-.85-.58-1.85-.7-2.8-.25-1.9-.92-2.3-2.54-1.32-.55,.33-.95,.91-1.5,1.22-.46,.26-1.04,.3-1.57,.43-.13-.59-.54-1.3-.34-1.74,.39-.86,1-1.7,1.72-2.3,1.42-1.18,1.85-2.43,.89-4.09-.29-.5-.57-1.09-.58-1.64,0-.68,.27-1.37,.43-2.05,.7,.28,1.42,.51,2.09,.85,.25,.13,.39,.5,.33,.42,1.28,.18,2.22,.31,3.17,.44,.88,.13,1.77,.26,3.12,.46-.27,1.95-.57,4.15-.9,6.56Z"/><path class="cls-1" d="M49.18,103.91c-1.2,1.64-1.23,3.94-3.88,3.81-.67-.03-1.37,.89-2.08,1.34-.6,.38-1.19,.85-1.85,.99-.43,.09-.97-.32-1.47-.51,.26-.4,.44-.92,.8-1.17,1.38-.94,2.89-1.7,4.2-2.72,.9-.7,1.52-1.76,2.37-2.55,.41-.38,1.06-.5,1.6-.74,.12,.57,.23,1.15,.31,1.54Z"/><path class="cls-1" d="M55.96,108.02c-1.56-1.73-2.39-.81-3.49,.21-1.25,1.16-2.79,2.02-4.29,2.87-.4,.23-1.11,0-1.64-.16-.15-.04-.29-.78-.23-.81,.47-.25,1.03-.34,1.5-.6,1.44-.77,2.96-1.45,4.24-2.44,.95-.73,1.52-1.94,2.38-2.82,.39-.4,1.08-.5,1.64-.73,.16,.51,.47,1.04,.44,1.54-.05,.87-.32,1.73-.56,2.94Z"/><path class="cls-1" d="M64.79,103.61c-.3,2.66-.97,4.73-2.55,5.94-1.39,1.06-3.27,2.21-5.48,.52,4.34,.14,4.48-4.79,8.04-6.46Z"/><path class="cls-1" d="M93.92,46.4c2.2,.34,3.48,2.04,3.87,4.29,.45,2.57-1.4,4.2-3.27,5.33-1.68,1.01-3.69,1.65-5.64,1.97-2.7,.44-4.84-1.04-5.85-3.54-.14-.35-.21-.76-.17-1.13,.61-5.36,5.6-8.6,11.05-6.92Z"/><path class="cls-1" d="M36.8,38.01c-.52,2.48-2.23,4.03-4.34,5-2.53,1.16-5.17,2.14-7.86,2.9-2.26,.64-4.92-.63-5.97-2.41-1.6-2.72-1.67-6.47-.15-8.35,.16-.2,.35-.43,.57-.52,3.4-1.35,6.74-2.93,10.24-3.94,2.93-.84,5.65,.58,7.46,2.8,.82,1,.45,2.97,.62,4.5l-.57,.03Z"/><path class="cls-1" d="M50.68,27.64c5.5,2.05,6.42,3.49,4.96,7.98-.49,1.52-2.13,2.67-3.29,3.95-2.86,3.18-6.53,4.09-10.64,3.71-2.95-.27-4.8-2.68-3.53-5.33,1.45-3.01,3.22-6,5.46-8.44,2.01-2.19,5.05-2.49,7.04-1.88Z"/></svg>