<?xml version="1.0" encoding="UTF-8"?><svg id="one" xmlns="http://www.w3.org/2000/svg" viewBox="0 0 128 128"><defs><style>.cls-1{fill:#f8f8f8;}</style></defs><path class="cls-1" d="M15.07,53.16c-1.08-11.53,5.07-20.1,11.44-28.58,.92-1.23,1.71-2.58,2.77-3.67,6.18-6.36,13.43-11.04,21.91-13.78,2.51-.81,4.89-2.04,7.4-2.88,5.14-1.71,10.5-1.52,15.8-1.47,4.09,.04,8.19,.06,12.22,1.43,5.37,1.83,9.55,4.79,12.84,9.51,3.62,5.18,6.07,10.88,8.32,16.64,2.75,7.04,3.76,14.45,2.97,22.05-.47,4.51-.56,9.07-2.33,13.36-.46,1.11-.14,2.03,1.19,2.69,6.78,3.34,9.06,13.98,4.87,20.26-2.61,3.91-6.02,6.63-9.8,9.14-3.46,2.29-3.68,3.49-1.82,9.09,.79,2.39,.9,4.63,0,7.13-1.67,4.65-5.03,6.59-11.66,5.97-1.63-.15-3.36,.42-5.01,.8-3.11,.71-6.18,1.93-9.31,2.12-1.99,.12-4.04-1.36-6.12-1.89-.96-.25-2.05,.04-3.09,.09-.06,0-.14,.1-.19,.08-3.68-.96-6.74,2.39-10.41,1.5-1.28-.31-2.86-.2-3.8-.93-1.57-1.22-2.68-.79-4.14,0-3.29,1.79-6.59,1.91-9.97-.04-.7-.4-1.96-.01-2.91,.23-2.28,.59-4.49,1.72-6.79,1.91-6.99,.59-9.8-2.54-10.2-9.83-.12-2.25,.03-4.42,1.38-6.43,.97-1.43-.13-3.48-2.17-3.46-2.26,.02-3.38-.96-4.38-2.66-1.22-2.08-2.76-4.01-3.73-6.2-.45-1.02-.15-2.61,.3-3.75,1.65-4.2,4.66-7.26,8.56-9.45,1.15-.65,1.22-1.43,.86-2.62-1.41-4.6-3.04-9.17-3.96-13.87-.79-4.08-.74-8.32-1.06-12.49ZM84.28,119.22c2.36-.81,2.79-1.62,2.5-4.33-.25-2.35-.51-4.71-.6-7.07-.03-.65,.55-1.33,.84-1.99,.55,.32,1.1,.64,1.64,.97,2.38,1.47,2.48,3.65,2.02,6.11-.2,1.08-.09,2.25,.06,3.35,.07,.51,.53,1.29,.94,1.38,1.2,.26,2.52,.52,3.69,.27,4.04-.86,6.41-4.87,5.44-8.92-.52-2.18-1.22-4.33-1.54-6.53-.14-.94,.16-2.32,.8-2.93,2.18-2.05,4.53-3.95,6.95-5.73,5.97-4.38,8.25-10.25,6.27-17.03-.88-2.99-2.74-5.43-5.81-6.41-1.66-.53-2.01-1.28-1.75-2.89,.81-5.1,1.23-10.28,2.31-15.33,1.4-6.52,.04-12.85-1.78-18.81-2.52-8.25-6.23-16.19-12.84-22.25-1.13-1.03-2.29-2.06-3.58-2.86-5.84-3.67-12.44-3.48-18.92-3.3-6.6,.18-13.01,1.63-19.12,4.23-8.41,3.57-15.95,8.34-21.69,15.62-.82,1.04-1.59,2.13-2.4,3.17-4.39,5.66-8.59,11.43-8.93,18.98-.2,4.53-.71,9.1-.29,13.58,.66,7.1,1.93,14.14,5.31,20.59,.69,1.31,0,2.28-1.46,2.46-1.08,.13-2.34,.17-3.15,.77-1.62,1.18-3.15,2.58-4.43,4.13-3.32,4.01-3.1,7.93,.78,11.47,1.51,1.38,3.53,2.18,5.3,3.28,2.69,1.67,3.27,2.97,1.86,5.73-1.71,3.34-.75,6.59,0,9.8,.24,1.03,1.41,2.22,2.44,2.61,3.57,1.38,6.98,.19,10.24-1.35,1.19-.56,1.55-1.61,1.37-2.99-.22-1.65-.27-3.35-.18-5.01,.12-2.17,.79-2.38,2.8-1.49,1.54,.68,2.09,1.62,1.85,3.28-.2,1.38-.04,2.8-.16,4.19-.12,1.44,.55,2.2,1.81,2.69,2.6,1.01,6.49-.46,8.28-3.1-.44-.74-1.11-1.38-1.23-2.12-.46-2.72-.78-5.47-1.04-8.23-.04-.45,.52-.95,.8-1.43,.38,.35,.87,.63,1.11,1.06,.4,.71,.52,2.09,.96,2.18,2.49,.5,1.84,2.27,1.99,3.89,.2,2.05,.22,4.36,1.2,6.05,1.77,3.04,7.79,2.04,9.58-1.2-.64-.78-1.57-1.42-1.75-2.22-.52-2.31-.82-4.69-1.01-7.05-.05-.57,.61-1.63,1.06-1.7,.69-.11,2.03,.29,2.15,.74,.73,2.65,3.14,4.64,2.9,7.66-.15,1.82,1,2.92,2.58,3.39,2.67,.8,5.39,1.49,8.12,2.06,.62,.13,1.74-.23,1.97-.7,.26-.51-.14-1.44-.45-2.11-.25-.55-1-.91-1.15-1.45-1.09-4.01-1.4-8.04,.11-12.65,1.85,5.51,3.54,10.51,5.22,15.51Z"/><path class="cls-1" d="M64.25,63.21c-.64,2.76-.81,5.75-2.02,8.23-2.15,4.41-5.92,6.82-10.93,7.8-4.03,.79-8.01,.76-11.79-.13-3.36-.78-7.29-1.73-8.39-6.02-.79-3.09-1.82-6.19-2.12-9.34-.55-5.7,2.01-10.32,6.12-14.09,2.73-2.5,6.31-2.94,9.66-2.62,3.76,.36,7.85,.93,11.02,2.76,4.82,2.77,8.75,6.84,8.44,13.41Zm-8.36-10.71c-1.15-.82-2.29-1.64-3.67-2.63-.42,1.03-.67,1.63-.94,2.27,1.62,1.1,3.11,1.13,4.66,.3,.31,.98,.56,1.98,.94,2.93,.38,.95,1.16,1.83,1.27,2.79,.43,3.87,.66,7.76,.96,11.64,.05,.66,.07,1.31,.11,2.18,1.84-1.89,2.8-6.4,2.36-11.31-.34-3.73-3.3-5.78-5.68-8.17Zm-23.17,17.28l.72,.04v-14c-2.3,2.58-2.75,10.59-.72,13.96Zm12.46-19.67c1.41,.41,2.81,.81,4.58,1.32-1.2-2.08-1.71-2.23-4.58-1.32Z"/><path class="cls-1" d="M87.37,65.88c1.71,1.93,3.29,3.66,4.81,5.45,.27,.32,.27,.87,.39,1.31-.5,.06-1.17,.35-1.46,.14-1.04-.78-2.09-1.62-2.87-2.64-1.15-1.5-1.92-1.73-3.38-.47-.52,.45-.86,1.13-1.41,1.55-1.98,1.5-3.97,3.01-6.06,4.33-.46,.29-1.39-.18-2.11-.3,.41-.7,.67-1.84,1.25-2.04,2.51-.86,3.94-2.79,5.41-4.76,.93-1.25,.6-2.18-.7-2.63-2.47-.84-3.65-2.39-3.97-5.03-.25-2.03-1.49-3.73-3.67-4.45-.44-.15-.8-.55-1.36-.95,2.56-.92,5.24,.21,6.4,2.47,.32,.62,.37,1.44,.82,1.91,1.07,1.13,2.31,2.09,3.47,3.13,1.61,1.44,2.83,.23,4.25-.47,1.99-.97,4.1-1.76,6.21-2.43,.55-.17,1.33,.4,2,.63-.43,.54-.74,1.27-1.3,1.57-1.77,.98-3.64,1.78-5.45,2.69-.36,.18-.65,.51-1.28,1.02Z"/><path class="cls-1" d="M22.59,57.46c.15-1.84,.34-3.12,.35-4.4,.04-4.25-.04-8.51,.05-12.76,.03-1.45,.31-2.91,.67-4.32,.33-1.29,1.28-1.61,2.07-.46,.89,1.29,1.72,2.72,2.15,4.22,1.7,5.93,.63,11.44-3.03,16.4-.38,.51-1.18,.72-2.25,1.32Zm3.02-16.19h-.58v9.12c1.75-3,1.21-6.06,.58-9.12Z"/><path class="cls-1" d="M102.39,36.87c0,1.26-.15,2.54,.04,3.76,.19,1.19,1.03,2.32,1.05,3.48,.03,1.94-.52,3.9,.44,5.77-.55-.12-1.44-.08-1.6-.4-1.05-2.11-2.14-4.23-2.86-6.47-1.58-4.87-1.36-9.79,.27-14.6,.33-.96,1.38-1.68,2.11-2.51,.4,1.16,1.16,2.33,1.13,3.48-.08,2.49-.57,4.96-.89,7.44l.31,.04Z"/><path class="cls-1" d="M58.98,82.17c1.33,.53,2.72,.95,3.94,1.67,.4,.24,.64,1.42,.41,1.93-.73,1.61-5.81,3.89-7.6,3.61-1.87-.3-2.4-1.18-1.72-2.91,1.22-3.12,2.41-4.11,4.97-4.3Z"/><path class="cls-1" d="M67.13,82.88c1.44,.64,2.96,1.14,4.29,1.95,1.75,1.07,1.48,2.77-.43,3.62-2.13,.95-5.54-.6-6.22-2.85-.51-1.65,.3-2.54,2.36-2.73Z"/></svg>