<?xml version="1.0" encoding="UTF-8"?><svg id="two" xmlns="http://www.w3.org/2000/svg" viewBox="0 0 128 128"><defs><style>.cls-1{fill:#f8f8f8;}</style></defs><path class="cls-1" d="M118.91,52.67c2.81,4.14,1.56,8.84,2.13,13.3,.55,4.32-.6,8.13-3,11.47-3.39,4.72-6.5,9.74-11.68,12.92-.97,.6-1.64,2.02-2.03,3.2-2.78,8.51-8.18,14.64-16.2,18.59-6.74,3.31-13.64,6.19-21.06,7.5-3.72,.66-7.53,.79-11.31,1.13-1.36,.13-2.75,.08-4.09,.31-4.63,.77-9.03,.15-13.22-1.96-3.85-1.94-6.47-6.52-5.9-10.81,.62-4.7-.28-9.19-1.44-13.66-.67-2.59-3.26-3.25-5.07-4.69-1.54-1.23-3.19-2.33-4.69-3.6-1.78-1.52-1.91-3.68-1.92-5.82-.02-3.24,.08-6.48-.03-9.72-.06-1.69-.49-3.34-2.17-4.3-4.21-2.4-5.63-6.17-5.53-10.83,.06-2.83-.33-5.66-.36-8.5-.03-2.97-.34-6.04,.3-8.88,1.16-5.14,2.53-10.26,5.72-14.7,4.18-5.81,9.43-10.21,15.97-13.11,5.46-2.42,11.22-3.78,17.09-4.65,1.94-.29,3.95-.02,5.93-.05,6.4-.09,12.85-.63,19.04,1.47,4.28,1.45,8.83,2.65,12.55,5.06,4.38,2.83,8.07,6.77,11.94,10.36,4.78,4.44,8.51,9.76,11.91,15.26,2.87,4.64,5.16,9.63,7.71,14.47l-.6,.25ZM43.15,98.3c.37,.16,.58,.29,.82,.34,2.74,.58,3.53-.24,2.77-2.86-.42-1.44-.82-2.88-1.24-4.32-.32-1.1,.03-1.99,1.17-2.06,.42-.02,1.11,.88,1.3,1.48,.66,2.07,1.15,4.2,1.73,6.31,.36,1.29,1.44,1.44,2.38,1.06,.46-.19,.81-1.17,.84-1.81,.08-1.98-.14-3.97,.02-5.94,.05-.65,.91-1.23,1.39-1.85,.35,.76,.91,1.5,.99,2.29,.19,1.78,.05,3.6,.26,5.38,.06,.54,.81,1.38,1.28,1.4,1.22,.06,2.51-.12,3.68-.48,.46-.14,1.04-1.06,.97-1.55-.13-1.02-.77-1.97-.96-3-.1-.53,.29-1.16,.46-1.75,.57,.26,1.35,.36,1.66,.8,.53,.74,.78,1.69,1.12,2.56,.46,1.2,1.18,2.03,2.54,1.33,1.22-.63,2.81-1.09,2.07-3.12-.44-1.23-.85-2.5-1.01-3.78-.08-.63,.24-1.72,.7-1.94,1.09-.53,1.5,.47,1.74,1.34,.27,.95,.43,1.94,.72,2.89,.33,1.08,.92,1.33,1.95,.62,2.72-1.87,3-2.86,1.59-5.86-.47-1-1.72-2.37-.4-3.11,1.5-.84,1.62,1.14,2.28,1.98,.46,.58,1.03,1.07,1.56,1.6,.6-.69,1.33-1.31,1.76-2.09,.21-.37-.08-1.07-.26-1.58-.3-.88-.79-1.71-1-2.61-.12-.49,.18-1.08,.29-1.63,.57,.27,1.28,.4,1.67,.83,.54,.59,.83,1.4,1.42,2.46,1.93-3.47,4.47-5.39,8.14-5.28,.67,.02,1.32,.56,1.97,.87-.54,.48-1.07,1.36-1.63,1.38-2.55,.11-4.21,1.29-5.57,3.42-.95,1.49-1.67,2.65-.52,4.36,.37,.55,.08,1.55,.09,2.34-.76-.32-1.7-.47-2.22-1.02-.72-.75-1.1-.71-1.82-.08-1.26,1.11-1.7,2.19-.59,3.71,.31,.42,.09,1.23,.12,1.86-.51,0-1.34,.19-1.49-.04-1.43-2.22-2.33-.88-3.5,.3-.93,.93-1.18,1.79-.74,3,.28,.75,.53,1.59,.48,2.37-.04,.64-.54,1.25-.84,1.88-.62-.32-1.45-.48-1.81-.98-1.7-2.37-1.66-2.4-4.42-1.6-.12,.03-.24,.06-.36,.09-1.46,.3-1.72,.88-.81,2.2,.32,.46-.15,1.46-.27,2.21-.65-.3-1.75-.47-1.87-.92-.59-2.17-1.92-2.19-3.74-1.83-3.43,.67-3.51,.78-2.07,4.18,.22,.53-.08,1.28-.13,1.92-.65-.25-1.53-.32-1.88-.79-.58-.77-.92-1.77-1.17-2.72-.48-1.8-1.68-1.93-3.18-1.6-1.56,.35-1,1.56-1.12,2.56-.14,1.12-.36,2.27-.78,3.3-.14,.33-1.1,.52-1.6,.41-.31-.07-.63-.83-.65-1.3-.03-.73,.19-1.48,.28-2.22,.21-1.57-.12-2.58-2.06-2.2-.71,.14-1.5,.03-2.23-.09-1.14-.18-1.75,.32-2.14,1.33-.47,1.22-.89,2.48-1.55,3.59-.26,.44-1.13,.51-1.72,.75-.13-.6-.33-1.2-.38-1.8-.02-.27,.24-.56,.36-.85,1.36-3.17,.92-3.84-2.51-3.88-.17,0-.35,.09-.63,.16-.04,2.35,.05,4.72-.15,7.06-.35,4.23,1.71,8.09,5.49,9.98,3.03,1.52,6.18,2.08,9.59,1.73,4.77-.49,9.6-.42,14.33-1.1,7.7-1.1,14.93-3.87,21.95-7.16,3.34-1.57,6.45-3.42,9.12-6.09,5.19-5.18,7.66-11.66,8.81-18.61,.71-4.26,.43-8.67,.63-13.01,.04-.87,.24-1.73,.36-2.59l1.14,.07c.75,5.51,.89,11.06,.06,17.02,.84-.54,1.59-.81,2-1.33,3.05-3.84,6.11-7.66,8.98-11.63,.83-1.16,1.37-2.76,1.44-4.19,.32-6.09,.61-12.15-1.78-18.05-2.67-6.58-6.22-12.62-10.26-18.41-1.57-2.25-2.92-4.7-4.76-6.69-3.34-3.6-6.95-6.95-10.49-10.37-.93-.9-1.91-1.79-2.99-2.51-4.03-2.69-8.6-4.16-13.15-5.67-4.56-1.52-9.26-1.88-14.01-1.68-1.61,.07-3.21,.75-4.81,.76-3,.02-5.89-.46-9.01,0-5.79,.86-11.18,2.52-16.22,5.32-6.72,3.73-11.85,9.09-14.99,16.14-2.03,4.58-2.99,9.51-3.3,14.48-.12,2.01,.65,4.08,1.09,6.5,2.03-2.99,3.73-5.64,5.59-8.17,.87-1.17,1.89-2.48,3.15-3.07,4.06-1.9,8.09-3.49,12.82-1.34,4.57,2.07,8.53,4.62,11.79,8.48,4.77,5.66,2.79,13.71-2.68,16.82-.59,.34-1.15,.74-1.73,1.11-4.52,2.91-9.73,4-14.69,2.89-6.64-1.48-11.56-5.86-14.23-12.17-.91,3.3,.18,6.58,3.05,8.87,1.84,1.47,3.97,2.77,4.13,5.46,.2,3.36,.53,6.73,.36,10.08-.19,3.64,1.26,6.08,4.27,7.85,1.72,1.01,3.51,1.95,5.03,3.21,1.04,.87,2.19,2.14,2.39,3.39,.47,2.84,1.89,4.09,4.66,4.01,.12,0,.24,.05,.37,.07,1.86,.27,2.95-1.09,2.26-2.86-.18-.46-.59-.86-.67-1.32-.09-.53-.13-1.37,.17-1.59,.38-.28,1.43-.32,1.64-.05,.72,.92,1.4,1.98,1.7,3.1,.24,.9-.09,1.95-.16,2.93Zm3.06-48.77c-.05,1.8,.02,3.3-.15,4.77-.39,3.38-.44,3.37,.45,4.11,1.9-2.91,1.86-5.92-.3-8.88Z"/><path class="cls-1" d="M78.16,39.81c2.64,6.24,.16,10.32-2.45,13.91-3.4,4.68-8.38,6.98-14.32,6.46-2.74-.24-4.86-1.61-6.89-3.64-4.26-4.28-4.25-9.04-2.78-14.33,1.88-6.73,8.7-11.43,15.62-10.53,1.1,.14,2.22,.26,3.28,.57,4.5,1.3,6.32,5.08,7.55,7.57Zm-22.52,11.73l.7-.19c-.54-1.87-1.07-3.74-1.61-5.62l-.72,.21c.54,1.87,1.09,3.74,1.63,5.6Z"/><path class="cls-1" d="M55.14,76.78c-.11,.18-.31,.64-.61,1.03-.38,.49-.78,1-1.28,1.34-.89,.6-5.01-.64-6.16-1.93-1.22-1.36-.85-2.74,0-4.27,1.25-2.28,2.13-4.76,3.35-7.07,.43-.82,1.37-1.92,2.07-1.92,.74,0,1.82,1.04,2.15,1.86,1.12,2.75,2.02,5.6,2.91,8.45,.2,.64,.27,1.6-.08,2.06-.29,.39-1.27,.28-2.34,.45Z"/></svg>