<?xml version="1.0" encoding="UTF-8"?><svg id="three" xmlns="http://www.w3.org/2000/svg" viewBox="0 0 128 128"><defs><style>.cls-1{fill:#f8f8f8;}</style></defs><path class="cls-1" d="M5.49,82c-1.91-4.59-1.39-9.92-1.26-15.22,.04-1.87-.12-3.77,.07-5.62,1.04-10.18,4.73-19.28,11.6-26.93,3.37-3.76,6.65-7.71,10.57-10.82,6.88-5.46,13.89-10.96,22.75-13.01,2.13-.49,4.37-.48,6.56-.7,6.23-.61,12.46-1.3,18.71-1.8,8.3-.67,16.44-.19,24.21,3.34,4.1,1.86,8.1,3.61,11.43,6.87,6.12,5.98,11.12,12.51,12.87,21.1,.67,3.27,1.62,6.52,1.92,9.83,.21,2.38-.15,4.91-.79,7.24-1.22,4.47-2.86,8.72-5.92,12.47-4.24,5.19-5.97,11.23-4.63,18.09,1.13,5.78-2.77,12.08-8.22,14.15-2.73,1.03-5.35,.33-7.86-.63-1.33-.51-2.01-.41-2.86,.73-.96,1.3-2.09,2.53-3.33,3.56-2.51,2.07-5.43,2.69-8.47,1.37-1.36-.59-2.26-.54-3.21,.57-3.26,3.81-7.3,5.8-12.44,5.76-1.18,0-2.85,1.04-3.48,2.1-4,6.73-16.11,8.38-20.89,3.3-2.19-2.33-3.86-5.25-5.32-8.13-1.6-3.15-4.1-4.34-7.29-5.47-4.49-1.6-8.82-3.87-12.89-6.38-6.51-4-10.37-8.75-11.83-15.75Zm76.34,14.87l.15-.04c.37,1.34,.63,2.72,1.13,4,.75,1.91,2.15,3.13,4.32,2.92,3.02-.29,5.69-4.67,4.74-7.57-.87-2.64-1.74-5.27-2.45-7.95-.17-.63,.1-1.78,.56-2.06,.54-.33,1.62-.19,2.23,.16,.64,.37,1.1,1.18,1.46,1.89,1.12,2.18,1.96,4.53,3.28,6.56,.81,1.25,2.18,2.48,3.55,2.96,6.53,2.28,10.57-4.5,9.44-9.05-1.84-7.42,.3-13.77,4.47-19.59,5.58-7.77,7.9-15.96,5.59-25.52-3.14-12.99-9.63-23.29-21.96-29.16-3.65-1.73-7.62-2.88-11.56-3.86-1.44-.36-3.51,.09-4.72,.96-1.34,.97-2.4,1.41-3.98,1.05-1.18-.27-2.43-.38-3.64-.39-3.42-.03-6.85-.13-10.25,.1-6.21,.42-12.69-.65-18.49,2.46-4.21,2.26-8.48,4.58-12.26,7.48-4.76,3.66-9.42,7.59-13.45,12.03-5.19,5.71-9.1,12.48-10.35,20.19-1.12,6.88-1.51,13.9-1.78,20.88-.19,5.15,2.05,9.81,5.11,13.79,4.68,6.09,11.28,9.6,18.54,11.66,4.07,1.16,7.39,2.9,9.37,6.75,.45,.87,.89,1.76,1.47,2.54,1.63,2.22,2.94,4.95,5.09,6.47,4.34,3.07,13.26-.82,14.72-6.06,.14-.51-.02-1.11-.03-1.66-.05-2.86-.24-5.73-.04-8.57,.05-.72,1.25-1.57,2.1-1.92,.31-.13,1.48,.95,1.68,1.65,.64,2.18,1.12,4.43,1.45,6.68,.23,1.58,.87,2.25,2.49,2.35,5.15,.31,9.05-4.56,7.58-9.52-.53-1.78-1.24-3.61-1.22-5.4,.01-.83,1.47-1.96,2.49-2.33,.47-.17,1.71,1.03,2.19,1.85,.56,.95,.66,2.17,.97,3.27Z"/><path class="cls-1" d="M83.54,52.79c-2.35-4.49-.89-8.67,.73-12.82,1.73-4.44,10.97-10.21,15.74-9.78,.76,.07,1.73,.38,2.17,.93,2.99,3.75,5.94,7.54,8.71,11.44,.51,.71,.49,2.14,.16,3.04-1.17,3.29-1.98,6.96-4.03,9.64-3.71,4.84-11.4,8.62-17.77,3.17-1.28-1.1-2.61-2.13-3.58-2.92-1.31,3.64-2.38,7.36-3.98,10.84-2.37,5.16-10.94,10.07-15.45,8.54-5.01-1.69-9.82-3.54-11.19-10.16-1.14-5.49-.55-10.12,2.24-14.67,1.36-2.22,2.88-4.37,4.53-6.37,2.79-3.38,7.66-4.16,11.13-1.48,2.99,2.32,5.57,5.17,8.28,7.84,.85,.84,1.55,1.84,2.31,2.76Z"/><path class="cls-1" d="M40.77,86.27c-3.54,.52-8.48-.19-13.27-1.31-1.64-.38-3.34-2.22-4.22-3.83-1.51-2.75-2.51-5.81-3.49-8.82-.32-1-.18-2.35,.22-3.36,1.95-4.84,3.9-9.72,7.95-13.32,4.1-3.64,13.13-3.52,17.12,.29,1.87,1.79,3.98,3.43,5.44,5.52,2.64,3.79,2.85,8.36,2.56,12.74-.44,6.65-4.93,9.94-12.32,12.07Z"/><path class="cls-1" d="M77.73,83.82c-3.99-1.71-6.33,.52-9.07,2.64-2.35,1.81-4.59,1.11-5.29-.59-.94-2.29,.25-5.08,2.53-5.77,.57-.18,1.39-.26,1.85,.01,2.38,1.4,3.86-.03,5.21-1.61,1.71-1.99,6.3-2.77,8.35-1.1,.5,.41,.76,1.96,.4,2.43-1.09,1.43-2.53,2.58-3.99,3.98Z"/></svg>