<?xml version="1.0" encoding="UTF-8"?><svg id="four" xmlns="http://www.w3.org/2000/svg" viewBox="0 0 128 128"><defs><style>.cls-1{fill:#f8f8f8;}</style></defs><path class="cls-1" d="M125.85,86.84c-2.49,7.18-5.87,12.43-10.92,16.15-4.65,3.43-9.66,6.51-15.23,8.38-3.37,1.13-6.85,1.94-10.2,3.12-2.72,.96-5.37,1.45-8.31,1.3-3.5-.18-6.21-1.86-9.03-3.48-5.98-3.44-9.39-9.09-12.16-15.04-2.49-5.34-2.62-10.75,1.55-15.69,1.46-1.73,2.5-3.85,3.58-5.87,.37-.69,.33-1.63,.37-2.46,.11-2.4-.04-4.84,.28-7.21,.42-3.12,2.53-4.76,5.67-4.69,1.17,.02,1.85-.26,2.37-1.43,1.19-2.67,3.46-3.62,6.3-2.62,1.62,.57,2.66,.64,3.34-1.29,.64-1.83,2.31-2.43,4.14-2.31,1.25,.08,1.96-.37,2.64-1.42,2.16-3.36,5.36-3.3,7.39,.06,1.13,1.86,2.2,3.76,3.32,5.63,1.08,1.79,2.66,2.96,4.78,2.78,7.68-.66,17.2,7.76,18.96,13.93,.08,.29,.18,.59,.34,.84,2.59,4.1,1.92,8.3,.82,11.35Zm-2.29,.76c.1-2.1,.85-5.11,.23-7.81-1.03-4.49-3.02-8.74-6.94-11.65-3.26-2.41-6.37-5-10.87-4.84-3.02,.11-5.54-1.28-7.15-3.96-1.09-1.81-2.1-3.68-3.21-5.49-.35-.57-.98-1.44-1.4-1.39-.66,.07-1.42,.68-1.82,1.28-.4,.61-.59,1.48-.57,2.23,.03,1.45,.4,2.9,.34,4.34-.02,.57-.8,1.11-1.23,1.66-.51-.41-1.24-.73-1.47-1.26-.39-.93-.34-2.05-.73-2.99-.23-.57-.94-1.32-1.43-1.32-.62,0-1.66,.59-1.78,1.1-.39,1.67-.55,3.41-.57,5.13,0,.87,.69,2.03-.6,2.2-.66,.09-1.64-.75-2.15-1.41-.57-.74-.69-1.8-1.13-2.65-.7-1.34-1.82-1.67-3.23-1.14-1.47,.55-2.15,1.51-1.73,3.11,.26,1,.58,1.99,.72,3.01,.14,1.07-.78,1.74-1.75,1.24-.49-.25-.92-.79-1.15-1.31-.63-1.37-1.79-1.83-3.11-1.79-1.42,.05-2.16,1.09-2.34,2.39-.27,1.97-.7,4-.51,5.95,.34,3.55-.93,6.43-3.1,9.01-2.15,2.56-4.1,5.25-4.02,8.72,.06,3.04,1.1,5.85,2.44,8.64,2.46,5.14,6.09,9.16,10.65,12.43,.43,.31,1.5,.49,1.65,.28,.8-1.11,1.52-.56,2.37-.18,.87,.39,1.8,.91,2.71,.92,3.63,.03,7.26-.07,10.89-.23,1.07-.05,2.17-.33,3.17-.73,5.4-2.19,10.61-4.68,15.65-7.68,6.1-3.63,9.66-9,13.18-15.81Z"/><path class="cls-1" d="M51.69,71.55c-.15,.78-.3,1.28-.34,1.79-.17,2.24-1.44,3.34-3.62,2.75-1.24-.34-2.37-1.13-3.51-1.78-.55-.31-1.01-.78-1.65-1.28-1.3,2.18-.34,5.7-3.95,5.98-2.96,.23-4.36-1.92-5.81-4.37-.62,1.16-1.04,2.06-1.55,2.91-2.73,4.47-5.92,3.5-8.51-.1-1.31-1.82-2.07-4.12-2.75-6.31-.95-3.06-2.85-5.03-5.63-6.53-2.63-1.42-5.27-2.82-7.47-5.04-3.09-3.11-4.32-6.95-4.69-10.98-.46-4.99-.69-10.2,1.93-14.75,2.13-3.7,4.43-7.5,7.41-10.48,6.69-6.68,14.8-10.38,24.55-10.49,5.39-.06,10.17,1.2,14.72,3.86,3.76,2.2,7.63,4.22,11.31,6.54,4.33,2.74,6.63,7.1,7.91,11.84,1.47,5.44-.54,10.27-3.62,14.71-1.73,2.49-3.51,4.94-5.3,7.38-1.35,1.84-1.01,3.9-.9,5.95,.11,2.18,.23,4.35,.22,6.53-.01,1.9-.78,3.41-2.69,4.14-1.77,.67-3.17-.18-4.56-1.09-.43-.29-.82-.64-1.49-1.17Zm-21.18,2.41l-.11-.05c.1-.29,.16-.6,.3-.86,.34-.6,.73-1.18,1.1-1.77,.6,.44,1.33,.78,1.78,1.34,.71,.89,1.1,2.07,1.89,2.87,.64,.64,1.68,1.24,2.52,1.21,.57-.02,1.32-1.06,1.62-1.8,.48-1.17,.59-2.48,.98-3.68,.19-.58,.66-1.07,1-1.61,.51,.36,1.07,.67,1.53,1.09,1.07,.97,1.99,2.16,3.18,2.96,1.61,1.09,2.82,.44,3.03-1.48,.14-1.26,.06-2.55,.2-3.81,.06-.54,.43-1.04,.66-1.56,.54,.3,1.21,.49,1.59,.93,.63,.72,1.01,1.65,1.6,2.41,.86,1.13,1.96,1.84,3.47,1.38,1.49-.46,1.58-1.83,1.57-2.99-.02-2.3-.21-4.6-.48-6.89-.28-2.37,.35-4.36,1.72-6.3,2.23-3.17,4.44-6.37,6.4-9.71,3.48-5.92,2.44-11.82-1.54-16.84-4.24-5.34-10.4-8.39-16.45-11.39-4.27-2.12-8.84-2.61-13.46-2.33-2.98,.18-6.06,.68-8.84,1.72-3.2,1.2-6.28,2.91-9.13,4.81-7.04,4.67-11.52,11.15-12.76,19.63-.22,1.48,0,3.02-.01,4.53-.01,4.61,.77,9.05,4.28,12.32,1.97,1.83,4.44,3.13,6.75,4.55,3.06,1.87,5.85,3.81,6.77,7.66,.5,2.1,1.48,4.11,2.44,6.06,1.15,2.36,3.54,2.49,5,.33,.57-.84,.93-1.82,1.39-2.74Z"/><path class="cls-1" d="M89.97,98.56c-1.2,1.43-2.19,3.18-3.67,4.22-1.97,1.39-7.9,.1-9.8-1.78-.9-.89-1.66-1.93-2.55-2.83-2.16-2.18-1.7-4.61-.76-7.1,1.22-3.25,3.49-5.72,6.31-7.54,1.56-1.01,3.56-1.41,5.42-1.83,.59-.13,1.56,.38,2.01,.9,1.02,1.19,1.79,2.58,2.72,3.85,2.1,2.87,1.12,7.55-.08,11.77l.39,.33Z"/><path class="cls-1" d="M93.72,84.92c.8-2.39,2.13-4.99,4.46-7.01,2.56-2.22,4.34-2.2,6.75,.16,.9,.88,2.2,1.42,2.9,2.41,.62,.87,1.23,2.45,.84,3.2-1.43,2.76-3.02,5.51-5.03,7.87-2.17,2.55-6.64,2.5-9.29,.39-1.98-1.58-2.14-2.87-.65-7.01Z"/><path class="cls-1" d="M92.9,74.57c-.4,1.01-1.48,1.3-2.79,.79-1.86-.73-1.12-2.17-.76-3.39,.33-1.14,1.98-1.96,2.89-1.59,.99,.41,1.38,2.22,.65,4.19Z"/><path class="cls-1" d="M85.76,72.66c1.04,1.43,1.83,2.49,2.61,3.56-.97,.43-2.43,1.47-2.82,1.16-.84-.66-1.26-1.99-1.55-3.12-.08-.29,.93-.87,1.77-1.6Z"/><path class="cls-1" d="M34.49,46.45c-1.37,2.48-3.16,4.72-6.58,5.26-1.76,.28-3.4,1.24-5.15,1.64-2.3,.53-4.45,.17-6.07-1.84-.94-1.16-2.32-2.09-2.89-3.39-1.87-4.27-.03-10.67,3.46-13.86,1.54-1.41,3.06-2.22,5.17-2.1,.78,.04,1.63-.4,2.39-.76,3.72-1.76,7.53-1.34,9.45,3.94,1.89,5.21,1.18,6.55,.24,11.1Z"/><path class="cls-1" d="M51.08,37.46c-.89,2.96-2.92,5.05-5.47,6.54-3.04,1.78-5.28,.98-6.92-2.14-1.48-2.81-1.01-7.24,.96-9.06,2.31-2.14,7.11-2.43,9.88-.59,1.78,1.18,2.32,3.02,1.55,5.24Z"/><path class="cls-1" d="M43.67,52.25c-1.23,1.55-2.3,3.06-3.56,4.39-.36,.38-1.41,.49-1.91,.25-.37-.18-.69-1.32-.47-1.71,.97-1.7,2.04-3.36,3.3-4.85,.41-.48,1.52-.37,2.31-.53,.1,.76,.21,1.53,.33,2.44Z"/><path class="cls-1" d="M36.09,54.72c-.61,.73-1.36,1.86-2.33,2.75-.95,.87-2.38,.11-2.52-1.21-.17-1.64,1.66-3.85,3.34-4.03,1.27-.13,2.06,.88,1.51,2.49Z"/></svg>