<?xml version="1.0" encoding="UTF-8"?><svg id="five" xmlns="http://www.w3.org/2000/svg" viewBox="0 0 128 128"><defs><style>.cls-1{fill:#f8f8f8;}</style></defs><path class="cls-1" d="M67.43,105.33c-5.61,2.92-8.42,1.88-9.71-3.43-8.18,1.59-9,1.24-11.97-4.98-1.47,.35-2.9,.97-4.34,.98-2.88,.03-4.53-1.9-4.69-5.03-.11-2.08-.36-2.24-2.22-1.45-1.33,.57-2.66,1.13-4,1.68-2.91,1.19-4.96,.07-5.45-2.99-.13-.79-.22-1.59-.37-2.66-.82,.36-1.5,.62-2.15,.94-2.32,1.16-4.17,.97-5.91-.71-1.54-1.49-1.32-3.1-.66-5.02,.95-2.79,1.97-5.72,2-8.6,.02-2.44-.87-5.16-2.15-7.29-2.72-4.53-5.94-8.74-8.96-13.09-.11-.16-.16-.36-.3-.48-3.68-3.23-2.96-7.31-2.12-11.35,.52-2.51,1.09-5.04,2-7.42,1.57-4.11,5.11-6.7,8.29-9.41,3.39-2.88,6.99-5.64,10.87-7.78,8.27-4.56,17.06-5.23,26.15-2.49,4.84,1.46,9.34,3.58,13.2,6.78,2.19,1.82,3.84,4.28,5.75,6.44,.62,.7,1.21,1.49,1.97,2.02,3.8,2.62,5.97,6.21,6.64,10.74,.22,1.49,.92,1.74,2.22,1.16,1.49-.67,3.05-1.18,4.54-1.84,5.1-2.27,10.45-2.3,15.78-1.48,6.87,1.06,12.15,4.85,16.32,10.35,4.12,5.43,6.37,11.64,7.06,18.28,.5,4.83-.68,9.51-3.05,13.95-2.46,4.61-5.86,8.34-10.17,10.87-5.11,3.01-10.7,5.22-16.12,7.68-5.03,2.29-9.62,5.15-12.14,10.25-1.48,2.99-3.67,3.76-7.4,3.12-.5-.09-.99-.17-1.49-.27-4.06-.88-7.13-2.78-7.43-7.46Zm53.11-25.91c.38-1.02,.88-2.44,1.42-3.84,1.91-4.95,1.05-9.98-.5-14.64-2.74-8.24-7.22-15.4-15.72-19.02-5.57-2.37-11.28-2.46-16.96-.5-2.91,1-5.67,2.42-8.54,3.53-2.44,.95-3.19,.54-3.18-2.06,.01-3.17-2.14-5.46-2.95-8.27-.06-.21-.34-.35-.52-.52-1.13-1.11-2.32-2.18-3.39-3.34-2.55-2.76-4.76-5.93-7.63-8.28-3.72-3.04-8.29-4.62-12.94-5.98-8.28-2.42-16.29-1.38-23.61,2.56-4.92,2.65-9.17,6.61-13.53,10.21-1.51,1.24-2.71,3.03-3.59,4.8-1.94,3.9-2.33,8.21-2.46,12.51-.03,.89,.23,1.93,.72,2.66,2.41,3.61,4.89,7.18,7.45,10.69,2.76,3.79,5.29,7.68,6.26,12.36,.16,.77,.2,1.63,0,2.38-.74,2.86-1.62,5.69-2.39,8.54-.67,2.51,.67,3.82,3.18,3.14,.6-.16,1.21-.39,1.76-.68,2.33-1.24,4.62-2.58,6.99-3.74,.65-.32,1.54-.12,2.32-.16-.38,.69-.63,1.49-1.15,2.05-.99,1.05-2.42,1.8-3.1,2.99-.57,.99-.33,2.45-.44,3.7,.86,.05,1.77,.3,2.58,.12,2.64-.58,4.89-1.89,6.77-3.89,.43-.46,1.42-.4,2.15-.57,.12,.73,.37,1.46,.34,2.18-.07,1.56-.35,3.11-.44,4.67-.06,1.1,.36,1.88,1.63,2.17,1.28,.3,2.07,.08,2.9-1.03,1-1.34,2.25-2.52,3.51-3.63,.35-.31,1.3-.36,1.68-.1,.39,.27,.61,1.08,.57,1.63-.06,.8-.56,1.56-.65,2.36-.37,3.35,.02,5.44,2.68,6,2.72,.57,5.29,.06,7.18-2.27,.4-.49,.72-1.12,1.23-1.41,.68-.39,1.52-.51,2.29-.75-.04,.81,.08,1.66-.15,2.41-.41,1.37-1.29,2.64-1.49,4.02-.28,1.95,1.95,3.26,3.62,2.19,.87-.56,1.44-1.57,2.28-2.21,.95-.73,2.04-1.27,3.07-1.89,.16,1.05,.51,2.12,.45,3.16-.17,2.85,.98,6.31,4.87,6.7,.68,.07,1.35,.33,2.03,.45,1.9,.36,3.39-.21,4.2-2.05,2.14-4.92,6.29-7.61,10.89-9.7,4.52-2.06,9.18-3.82,13.69-5.91,6.22-2.89,10.98-7.45,14.65-13.77Z"/><path class="cls-1" d="M91.46,74.52c-1.03,.63-1.93,1.31-2.93,1.77-2.79,1.29-5.13-.58-7.47-1.45-3.82-1.43-4.68-4.06-3.28-8.87,1.07-3.66,3.63-6.05,7.25-7.05,4.53-1.25,8.66,2.37,8.81,7.51,.02,.8-.01,1.61-.02,2.18,1.73-.89,3.36-2.14,5.18-2.59,4.34-1.06,8.4-.69,11.13,3.61,1.4,2.2,1.86,4.69,1.37,7.06-1.03,5.04-3.75,9.04-8.6,11.23-2.07,.94-4.22,.71-6.16-.35-1.46-.8-2.94-1.71-4.11-2.87-3-2.97-2.17-6.54-1.19-10.18Z"/><path class="cls-1" d="M19.53,38.34c2.59-4.87,7.03-6.4,12-6.71,1.3-.08,2.89,.64,3.95,1.48,2.87,2.29,5.14,5.02,6.36,8.68,1.15,3.45,.37,6.49-1.07,9.46-1.21,2.49-3.9,2.83-6.2,2.91-3.43,.12-6.92-.14-10.32-.67-4.7-.74-7.46-5.5-6.31-10.54,.36-1.58,1.05-3.08,1.59-4.61Z"/><path class="cls-1" d="M47.04,59.18c-2.8-1.67-4.23-3.62-3.96-6.57,.07-.73-.07-1.5-.19-2.24-.48-2.91,.35-4.76,3.1-5.65,2.84-.92,5.79-1.63,8.74-2.07,3-.44,5.35,1.09,6.2,4.01,.66,2.27,1.03,4.67,1.12,7.04,.12,2.79-2.37,5.49-5.85,6.3-3.24,.75-6.47,.15-9.17-.82Z"/><path class="cls-1" d="M65.52,68.58c-3.93-1.4-5.6-10.01-2.8-13.1,1.63-1.8,3.54-3.35,5.38-4.96,.29-.25,.84-.37,1.24-.31,3.11,.49,6.04,1.53,8.22,3.86,1.3,1.38,1.98,3.15,1.3,5.23-.67,2.02-1.1,4.12-1.68,6.17-.8,2.8-3,3.73-5.6,3.83-2.02,.08-4.05-.14-6.07-.23l.02-.5Z"/><path class="cls-1" d="M46.86,77.82c.67-.73,1.27-1.53,2.01-2.17,1.28-1.1,2.66-2.06,3.96-3.14,1.44-1.19,3.96-1.3,5.36-.08,.27,.24,.51,.83,.4,1.13-.84,2.4-1.62,4.85-2.72,7.13-.79,1.64-3.57,1.42-4.76-.31-.95-1.37-1.91-2.51-3.89-1.96l-.36-.62Z"/><path class="cls-1" d="M67.89,85.15c-.59,1.04-1.14,1.29-2.12,.46-.52-.44-1.42-.45-2.15-.63-1.06-.26-2.14-.41-3.16-.78-.3-.11-.64-.83-.56-1.17,.46-1.88,1.02-3.73,1.58-5.58,.3-.99,.73-1.81,2.01-1.16,.2,.1,.57,.16,.72,.05,2.05-1.47,3.04,.88,4.56,1.29,.24,.06,.5,.79,.43,1.15-.4,2.16-.88,4.3-1.32,6.36Z"/></svg>